<svg width="159" height="164" viewBox="0 0 159 164" fill="none" xmlns="http://www.w3.org/2000/svg">
<ellipse cx="64" cy="36.5" rx="38" ry="36.5" fill="url(#paint0_linear_15_989)"/>
<ellipse cx="38" cy="77.5" rx="38" ry="36.5" fill="url(#paint1_linear_15_989)"/>
<path d="M128.649 109.693C110.856 143.895 80.5267 153.242 57.7259 141.38C34.9251 129.518 28.2874 100.939 46.0804 66.7374C63.8734 32.5361 94.1119 19.6319 116.913 31.4939C139.713 43.3559 146.442 75.4922 128.649 109.693Z" fill="url(#paint2_linear_15_989)"/>
<path d="M49.4819 67.276C53.5395 72.7758 55.4817 86.7761 81.4819 100.776C107.482 114.776 120.319 108.822 127.969 112.504C128.9 112.952 129.299 113.811 129.368 115.077C129.384 115.358 129.356 115.641 129.27 115.909C128.821 117.297 127.615 118.638 125.969 119.004C118.402 120.686 92.1635 117.191 75.4821 106.776C58.8008 96.3607 50.969 88.5037 42.8644 72.91C40.6769 68.7011 46.6814 63.4801 49.4819 67.276Z" fill="url(#paint3_linear_15_989)"/>
<path d="M39 92.5C43.4343 96.8648 44.6942 110.66 68.0823 123.029C91.4703 135.398 103.319 129.692 110.524 132.231C113.105 133.14 111.468 137.764 108.369 138.634C101.292 140.622 77.1902 138.461 62.252 129.135C47.3138 119.808 40.4397 112.549 33.6765 97.7925C31.851 93.8096 35.9392 89.4872 39 92.5Z" fill="url(#paint4_linear_15_989)"/>
<path d="M125.577 22.5492C126.203 23.4727 125.887 24.7395 124.92 25.2953C123.235 26.2634 120.735 27.7984 118.952 29.3263C117.683 30.4136 116.679 31.9974 115.947 33.4441C115.301 34.7227 113.322 34.8959 112.622 33.6457C112.439 33.3178 112.374 32.9372 112.469 32.5736C112.788 31.3515 113.752 28.4157 116.02 26.4716C118.027 24.7524 121.35 22.922 123.241 21.9408C124.061 21.5156 125.059 21.7847 125.577 22.5492Z" fill="url(#paint5_linear_15_989)"/>
<path d="M137.635 32.5785C138.261 33.502 137.946 34.7688 136.978 35.3246C135.294 36.2927 132.794 37.8277 131.011 39.3556C129.742 40.4429 128.737 42.0267 128.006 43.4734C127.36 44.752 125.381 44.9252 124.681 43.675C124.497 43.3471 124.433 42.9665 124.528 42.6029C124.846 41.3808 125.81 38.445 128.079 36.5009C130.085 34.7816 133.408 32.9513 135.3 31.9701C136.12 31.5449 137.118 31.814 137.635 32.5785Z" fill="#3D3119"/>
<circle cx="97.2376" cy="60.1729" r="3.03265" transform="rotate(20.3345 97.2376 60.1729)" fill="black"/>
<circle cx="122.373" cy="73.7998" r="3.03265" transform="rotate(20.3345 122.373 73.7998)" fill="black"/>
<circle cx="99.7403" cy="59.8219" r="1.01088" transform="rotate(6.563 99.7403 59.8219)" fill="white"/>
<circle cx="124.695" cy="72.8678" r="1.01088" transform="rotate(6.563 124.695 72.8678)" fill="white"/>
<path d="M97.7479 66.4193C97.7082 65.6376 98.563 65.2618 99.1777 65.7462C99.3843 65.909 99.519 66.1465 99.5521 66.4074C100.089 70.6474 100.137 72.1066 104.5 75.5002C108.658 77.9951 112.833 76.8094 114.558 75.7105C115.003 75.4272 115.634 75.3487 116.055 75.6659C116.541 76.0317 116.541 76.7415 116.018 77.0508C113.945 78.2752 108.925 80.4708 103.665 77.0351C98.8175 73.8683 97.8792 69.0116 97.7479 66.4193Z" fill="black"/>
<circle cx="136.647" cy="33.6471" r="2.5" transform="rotate(-176.527 136.647 33.6471)" fill="url(#paint6_linear_15_989)"/>
<path d="M121.848 23.8443C121.932 22.4661 123.117 21.4167 124.495 21.5003C125.873 21.584 126.923 22.769 126.839 24.1472C126.755 25.5253 125.57 26.5748 124.192 26.4911C122.814 26.4075 121.764 25.2225 121.848 23.8443Z" fill="url(#paint7_linear_15_989)"/>
<defs>
<linearGradient id="paint0_linear_15_989" x1="64" y1="0" x2="64" y2="73" gradientUnits="userSpaceOnUse">
<stop stop-color="#E2F6FF"/>
<stop offset="1" stop-color="#60BDE6" stop-opacity="0.16"/>
</linearGradient>
<linearGradient id="paint1_linear_15_989" x1="38" y1="41" x2="38" y2="114" gradientUnits="userSpaceOnUse">
<stop stop-color="#E2F6FF"/>
<stop offset="1" stop-color="#60BDE6" stop-opacity="0.16"/>
</linearGradient>
<linearGradient id="paint2_linear_15_989" x1="58" y1="57" x2="117" y2="129.5" gradientUnits="userSpaceOnUse">
<stop stop-color="#FFD43B"/>
<stop offset="1" stop-color="#FFB800"/>
</linearGradient>
<linearGradient id="paint3_linear_15_989" x1="86.6428" y1="90.8834" x2="78.1691" y2="104.455" gradientUnits="userSpaceOnUse">
<stop stop-color="#926100"/>
<stop offset="1" stop-color="#6D4C0B"/>
</linearGradient>
<linearGradient id="paint4_linear_15_989" x1="73.3194" y1="113.184" x2="64.8458" y2="126.756" gradientUnits="userSpaceOnUse">
<stop stop-color="#926100"/>
<stop offset="1" stop-color="#6D4C0B"/>
</linearGradient>
<linearGradient id="paint5_linear_15_989" x1="123.114" y1="34.4098" x2="112.703" y2="22.2601" gradientUnits="userSpaceOnUse">
<stop stop-color="#3D3119"/>
<stop offset="1" stop-color="#7E7055"/>
</linearGradient>
<linearGradient id="paint6_linear_15_989" x1="136.647" y1="31.1471" x2="136.647" y2="36.1471" gradientUnits="userSpaceOnUse">
<stop stop-color="#3D3119"/>
<stop offset="1" stop-color="#7E7055"/>
</linearGradient>
<linearGradient id="paint7_linear_15_989" x1="124.495" y1="27.1426" x2="124.798" y2="22.1517" gradientUnits="userSpaceOnUse">
<stop stop-color="#3D3119"/>
<stop offset="1" stop-color="#7E7055"/>
</linearGradient>
</defs>
</svg>
