<svg width="28" height="28" viewBox="0 0 28 28" fill="none" xmlns="http://www.w3.org/2000/svg">
<g clip-path="url(#clip0_26054_39809)">
<rect width="28" height="28" rx="14" fill="current"/>
</g>
<g clip-path="url(#clip1_26054_39809)">
<path d="M9.13135 19.292C9.05518 19.2201 9.00439 19.1354 8.979 19.0381C8.95785 18.9408 8.95996 18.8434 8.98535 18.7461C9.01074 18.6488 9.05941 18.5641 9.13135 18.4922L13.1938 14.4233L9.13135 10.3608C9.05941 10.2889 9.01074 10.2043 8.98535 10.1069C8.96419 10.0096 8.96419 9.91227 8.98535 9.81494C9.01074 9.71761 9.05941 9.63298 9.13135 9.56104C9.20329 9.48486 9.28792 9.4362 9.38525 9.41504C9.48258 9.38965 9.57992 9.38965 9.67725 9.41504C9.77881 9.4362 9.86556 9.48486 9.9375 9.56104L14 13.6235L18.0625 9.56104C18.1344 9.48486 18.2191 9.4362 18.3164 9.41504C18.4137 9.38965 18.5111 9.38965 18.6084 9.41504C18.7057 9.4362 18.7925 9.48486 18.8687 9.56104C18.9406 9.63298 18.9893 9.71761 19.0146 9.81494C19.04 9.91227 19.04 10.0096 19.0146 10.1069C18.9893 10.2043 18.9406 10.2889 18.8687 10.3608L14.8062 14.4233L18.8687 18.4922C18.9406 18.5641 18.9871 18.6488 19.0083 18.7461C19.0337 18.8434 19.0337 18.9408 19.0083 19.0381C18.9871 19.1354 18.9406 19.2201 18.8687 19.292C18.7967 19.3682 18.71 19.4168 18.6084 19.438C18.5111 19.4634 18.4137 19.4634 18.3164 19.438C18.2191 19.4126 18.1344 19.3639 18.0625 19.292L14 15.2295L9.9375 19.292C9.86556 19.3639 9.78092 19.4126 9.68359 19.438C9.58626 19.4634 9.48893 19.4634 9.3916 19.438C9.29427 19.4126 9.20752 19.3639 9.13135 19.292Z" fill="white"/>
</g>
<defs>
<clipPath id="clip0_26054_39809">
<rect width="28" height="28" fill="white"/>
</clipPath>
<clipPath id="clip1_26054_39809">
<rect width="28" height="28" fill="white"/>
</clipPath>
</defs>
</svg>
